ScienceGothic-BlkCndCtr.ufo
<glyph name="dollar" format="2">
  <advance width="1272"/>
  <unicode hex="0024"/>
  <outline>
    <contour>
      <point x="603" y="-160" type="line"/>
      <point x="603" y="10" type="line"/>
      <point x="444" y="10" type="line" smooth="yes"/>
      <point x="349" y="10"/>
      <point x="197" y="38"/>
      <point x="91" y="113"/>
      <point x="34" y="246"/>
      <point x="34" y="352" type="qcurve" smooth="yes"/>
      <point x="34" y="410" type="line"/>
      <point x="580" y="462" type="line"/>
      <point x="580" y="46" type="line"/>
      <point x="580" y="46"/>
      <point x="580" y="46"/>
      <point x="580" y="46"/>
      <point x="580" y="46"/>
      <point x="580" y="46" type="qcurve"/>
      <point x="603" y="46" type="line"/>
      <point x="603" y="690" type="line"/>
      <point x="462" y="690" type="line" smooth="yes"/>
      <point x="367" y="690"/>
      <point x="215" y="718"/>
      <point x="110" y="794"/>
      <point x="54" y="928"/>
      <point x="54" y="1034" type="qcurve" smooth="yes"/>
      <point x="54" y="1058" type="line" smooth="yes"/>
      <point x="54" y="1162"/>
      <point x="115" y="1291"/>
      <point x="226" y="1364"/>
      <point x="379" y="1390"/>
      <point x="470" y="1390" type="qcurve" smooth="yes"/>
      <point x="603" y="1390" type="line"/>
      <point x="603" y="1560" type="line"/>
      <point x="665" y="1560" type="line"/>
      <point x="665" y="1390" type="line"/>
      <point x="802" y="1390" type="line" smooth="yes"/>
      <point x="894" y="1390"/>
      <point x="1045" y="1365"/>
      <point x="1153" y="1293"/>
      <point x="1212" y="1165"/>
      <point x="1212" y="1062" type="qcurve" smooth="yes"/>
      <point x="1212" y="1006" type="line"/>
      <point x="686" y="958" type="line"/>
      <point x="686" y="1354" type="line"/>
      <point x="686" y="1354"/>
      <point x="686" y="1354"/>
      <point x="686" y="1354"/>
      <point x="686" y="1354"/>
      <point x="686" y="1354" type="qcurve"/>
      <point x="665" y="1354" type="line"/>
      <point x="665" y="726" type="line"/>
      <point x="820" y="726" type="line" smooth="yes"/>
      <point x="912" y="726"/>
      <point x="1063" y="701"/>
      <point x="1172" y="630"/>
      <point x="1232" y="502"/>
      <point x="1232" y="398" type="qcurve" smooth="yes"/>
      <point x="1232" y="354" type="line" smooth="yes"/>
      <point x="1232" y="248"/>
      <point x="1175" y="113"/>
      <point x="1069" y="38"/>
      <point x="916" y="10"/>
      <point x="820" y="10" type="qcurve" smooth="yes"/>
      <point x="665" y="10" type="line"/>
      <point x="665" y="-160" type="line"/>
    </contour>
    <contour>
      <point x="603" y="726" type="line"/>
      <point x="603" y="1354" type="line"/>
      <point x="580" y="1354" type="line"/>
      <point x="580" y="1354"/>
      <point x="580" y="1354"/>
      <point x="580" y="1354"/>
      <point x="580" y="1354"/>
      <point x="580" y="1354" type="qcurve"/>
      <point x="580" y="726" type="line"/>
      <point x="580" y="726"/>
      <point x="580" y="726"/>
      <point x="580" y="726"/>
      <point x="580" y="726"/>
      <point x="580" y="726" type="qcurve"/>
    </contour>
    <contour>
      <point x="665" y="46" type="line"/>
      <point x="686" y="46" type="line"/>
      <point x="686" y="46"/>
      <point x="686" y="46"/>
      <point x="686" y="46"/>
      <point x="686" y="46"/>
      <point x="686" y="46" type="qcurve"/>
      <point x="686" y="690" type="line"/>
      <point x="686" y="690"/>
      <point x="686" y="690"/>
      <point x="686" y="690"/>
      <point x="686" y="690"/>
      <point x="686" y="690" type="qcurve"/>
      <point x="665" y="690" type="line"/>
    </contour>
  </outline>
</glyph>
<glyph name="six" format="2">
  <advance width="1324"/>
  <unicode hex="0036"/>
  <outline>
    <contour>
      <point x="646" y="-10" type="line"/>
      <point x="775" y="-10"/>
      <point x="966" y="-3"/>
      <point x="1103" y="21"/>
      <point x="1192" y="68"/>
      <point x="1244" y="148"/>
      <point x="1264" y="266"/>
      <point x="1264" y="349" type="qcurve" smooth="yes"/>
      <point x="1264" y="439"/>
      <point x="1244" y="564"/>
      <point x="1194" y="648"/>
      <point x="1109" y="696"/>
      <point x="981" y="721"/>
      <point x="803" y="727"/>
      <point x="684" y="727" type="qcurve" smooth="yes"/>
      <point x="599" y="727"/>
      <point x="465" y="712"/>
      <point x="365" y="691"/>
      <point x="298" y="666"/>
      <point x="280" y="655" type="qcurve"/>
      <point x="280" y="615" type="line"/>
      <point x="312" y="630"/>
      <point x="379" y="658"/>
      <point x="458" y="679"/>
      <point x="555" y="691"/>
      <point x="618" y="691" type="qcurve" smooth="yes"/>
      <point x="642" y="691"/>
      <point x="675" y="687"/>
      <point x="698" y="672"/>
      <point x="711" y="644"/>
      <point x="718" y="596"/>
      <point x="720" y="527"/>
      <point x="720" y="478" type="qcurve" smooth="yes"/>
      <point x="720" y="369"/>
      <point x="718" y="216"/>
      <point x="713" y="116"/>
      <point x="705" y="60"/>
      <point x="691" y="32"/>
      <point x="672" y="26"/>
      <point x="659" y="26" type="qcurve" smooth="yes"/>
      <point x="646" y="26"/>
      <point x="628" y="33"/>
      <point x="614" y="63"/>
      <point x="606" y="124"/>
      <point x="602" y="229"/>
      <point x="600" y="387"/>
      <point x="600" y="500" type="qcurve" smooth="yes"/>
      <point x="600" y="685"/>
      <point x="612" y="959"/>
      <point x="640" y="1153"/>
      <point x="689" y="1277"/>
      <point x="763" y="1347"/>
      <point x="866" y="1374"/>
      <point x="934" y="1374" type="qcurve" smooth="yes"/>
      <point x="943" y="1374"/>
      <point x="963" y="1373"/>
      <point x="984" y="1370"/>
      <point x="1006" y="1366"/>
      <point x="1015" y="1364" type="qcurve"/>
      <point x="999" y="1404" type="line"/>
      <point x="994" y="1405"/>
      <point x="980" y="1407"/>
      <point x="963" y="1409"/>
      <point x="945" y="1410"/>
      <point x="937" y="1410" type="qcurve" smooth="yes"/>
      <point x="785" y="1410"/>
      <point x="536" y="1367"/>
      <point x="341" y="1277"/>
      <point x="198" y="1140"/>
      <point x="105" y="951"/>
      <point x="60" y="710"/>
      <point x="60" y="561" type="qcurve" smooth="yes"/>
      <point x="60" y="431"/>
      <point x="73" y="244"/>
      <point x="114" y="118"/>
      <point x="193" y="42"/>
      <point x="323" y="2"/>
      <point x="513" y="-10"/>
      <point x="646" y="-10" type="qcurve"/>
    </contour>
  </outline>
</glyph>
<glyph name="nine" format="2">
  <advance width="1316"/>
  <unicode hex="0039"/>
  <outline>
    <contour>
      <point x="666" y="1410" type="line"/>
      <point x="538" y="1410"/>
      <point x="346" y="1403"/>
      <point x="209" y="1377"/>
      <point x="120" y="1326"/>
      <point x="68" y="1241"/>
      <point x="48" y="1115"/>
      <point x="48" y="1026" type="qcurve" smooth="yes"/>
      <point x="48" y="935"/>
      <point x="68" y="808"/>
      <point x="118" y="723"/>
      <point x="203" y="674"/>
      <point x="331" y="649"/>
      <point x="510" y="643"/>
      <point x="628" y="643" type="qcurve" smooth="yes"/>
      <point x="713" y="643"/>
      <point x="847" y="658"/>
      <point x="947" y="679"/>
      <point x="1014" y="705"/>
      <point x="1032" y="715" type="qcurve"/>
      <point x="1032" y="755" type="line"/>
      <point x="1000" y="740"/>
      <point x="933" y="713"/>
      <point x="854" y="692"/>
      <point x="757" y="679"/>
      <point x="694" y="679" type="qcurve" smooth="yes"/>
      <point x="671" y="679"/>
      <point x="637" y="683"/>
      <point x="614" y="698"/>
      <point x="601" y="726"/>
      <point x="594" y="774"/>
      <point x="592" y="843"/>
      <point x="592" y="892" type="qcurve" smooth="yes"/>
      <point x="592" y="1009"/>
      <point x="594" y="1171"/>
      <point x="599" y="1279"/>
      <point x="607" y="1338"/>
      <point x="621" y="1368"/>
      <point x="640" y="1374"/>
      <point x="653" y="1374" type="qcurve" smooth="yes"/>
      <point x="666" y="1374"/>
      <point x="684" y="1365"/>
      <point x="698" y="1333"/>
      <point x="706" y="1270"/>
      <point x="710" y="1163"/>
      <point x="712" y="1003"/>
      <point x="712" y="890" type="qcurve" smooth="yes"/>
      <point x="712" y="704"/>
      <point x="700" y="430"/>
      <point x="672" y="237"/>
      <point x="623" y="116"/>
      <point x="549" y="47"/>
      <point x="446" y="22"/>
      <point x="378" y="22" type="qcurve" smooth="yes"/>
      <point x="369" y="22"/>
      <point x="349" y="23"/>
      <point x="328" y="26"/>
      <point x="306" y="30"/>
      <point x="297" y="32" type="qcurve"/>
      <point x="313" y="-8" type="line"/>
      <point x="318" y="-9"/>
      <point x="332" y="-11"/>
      <point x="349" y="-13"/>
      <point x="367" y="-14"/>
      <point x="375" y="-14" type="qcurve" smooth="yes"/>
      <point x="528" y="-14"/>
      <point x="776" y="27"/>
      <point x="971" y="113"/>
      <point x="1114" y="246"/>
      <point x="1207" y="431"/>
      <point x="1252" y="670"/>
      <point x="1252" y="819" type="qcurve" smooth="yes"/>
      <point x="1252" y="950"/>
      <point x="1239" y="1139"/>
      <point x="1198" y="1270"/>
      <point x="1119" y="1351"/>
      <point x="989" y="1395"/>
      <point x="799" y="1410"/>
      <point x="666" y="1410" type="qcurve"/>
    </contour>
  </outline>
</glyph>
<glyph name="g" format="2">
  <advance width="1268" height="1448"/>
  <unicode hex="0067"/>
  <anchor x="634" y="1178" name="top"/>
  <anchor x="634" y="-554" name="bottom"/>
  <outline>
    <contour>
      <point x="580" y="32" type="line"/>
      <point x="580" y="992" type="line"/>
      <point x="580" y="992"/>
      <point x="580" y="992"/>
      <point x="580" y="992" type="qcurve"/>
      <point x="680" y="992" type="line"/>
      <point x="680" y="32" type="line"/>
      <point x="580" y="32" type="line"/>
      <point x="580" y="32"/>
      <point x="580" y="32"/>
      <point x="580" y="32" type="qcurve"/>
    </contour>
    <contour>
      <point x="136" y="-404" type="line"/>
      <point x="944" y="-404" type="line" smooth="yes"/>
      <point x="1003" y="-404"/>
      <point x="1098" y="-357"/>
      <point x="1167" y="-272"/>
      <point x="1204" y="-152"/>
      <point x="1204" y="-78" type="qcurve" smooth="yes"/>
      <point x="1204" y="1024" type="line"/>
      <point x="680" y="1024" type="line"/>
      <point x="680" y="1000" type="line"/>
      <point x="674" y="1012"/>
      <point x="636" y="1024"/>
      <point x="604" y="1024" type="qcurve" smooth="yes"/>
      <point x="362" y="1024" type="line" smooth="yes"/>
      <point x="283" y="1024"/>
      <point x="167" y="994"/>
      <point x="92" y="931"/>
      <point x="56" y="835"/>
      <point x="56" y="770" type="qcurve" smooth="yes"/>
      <point x="56" y="264" type="line" smooth="yes"/>
      <point x="56" y="195"/>
      <point x="91" y="95"/>
      <point x="166" y="31"/>
      <point x="282" y="0"/>
      <point x="362" y="0" type="qcurve" smooth="yes"/>
      <point x="604" y="0" type="line" smooth="yes"/>
      <point x="631" y="0"/>
      <point x="669" y="14"/>
      <point x="680" y="28" type="qcurve"/>
      <point x="680" y="-372" type="line"/>
      <point x="680" y="-372"/>
      <point x="680" y="-372"/>
      <point x="680" y="-372" type="qcurve"/>
      <point x="126" y="-372" type="line"/>
    </contour>
  </outline>
</glyph>
<glyph name="m" format="2">
  <advance width="1888" height="1448"/>
  <unicode hex="006D"/>
  <anchor x="944" y="1174" name="top"/>
  <anchor x="944" y="-150" name="bottom"/>
  <anchor x="-28" y="512" name="left"/>
  <outline>
    <contour>
      <point x="72" y="0" type="line"/>
      <point x="596" y="0" type="line"/>
      <point x="596" y="992" type="line"/>
      <point x="686" y="992" type="line"/>
      <point x="686" y="0" type="line"/>
      <point x="1210" y="0" type="line"/>
      <point x="1210" y="992" type="line"/>
      <point x="1300" y="992" type="line"/>
      <point x="1300" y="992"/>
      <point x="1300" y="992"/>
      <point x="1300" y="992" type="qcurve"/>
      <point x="1300" y="0" type="line"/>
      <point x="1824" y="0" type="line"/>
      <point x="1824" y="724" type="line" smooth="yes"/>
      <point x="1824" y="801"/>
      <point x="1783" y="914"/>
      <point x="1694" y="988"/>
      <point x="1556" y="1024"/>
      <point x="1458" y="1024" type="qcurve" smooth="yes"/>
      <point x="1198" y="1024" type="line" smooth="yes"/>
      <point x="1185" y="1024"/>
      <point x="1163" y="1021"/>
      <point x="1145" y="1014"/>
      <point x="1130" y="1005"/>
      <point x="1124" y="999" type="qcurve"/>
      <point x="1105" y="1005"/>
      <point x="1062" y="1015"/>
      <point x="1014" y="1021"/>
      <point x="961" y="1024"/>
      <point x="932" y="1024" type="qcurve" smooth="yes"/>
      <point x="672" y="1024" type="line" smooth="yes"/>
      <point x="645" y="1024"/>
      <point x="607" y="1010"/>
      <point x="596" y="996" type="qcurve"/>
      <point x="596" y="1024" type="line"/>
      <point x="72" y="1024" type="line"/>
    </contour>
  </outline>
  <guideline angle="90" x="1712" y="0"/>
</glyph>
<glyph name="o" format="2">
  <advance width="1260" height="1448"/>
  <unicode hex="006F"/>
  <anchor x="630" y="1174" name="top"/>
  <anchor x="630" y="-150" name="bottom"/>
  <anchor x="1204" y="776" name="horn"/>
  <anchor x="649" y="0" name="ogonek"/>
  <outline>
    <contour>
      <point x="56" y="258" type="line"/>
      <point x="56" y="776" type="line" smooth="yes"/>
      <point x="56" y="841"/>
      <point x="92" y="937"/>
      <point x="167" y="1000"/>
      <point x="283" y="1030"/>
      <point x="362" y="1030" type="qcurve" smooth="yes"/>
      <point x="898" y="1030" type="line" smooth="yes"/>
      <point x="1057" y="1030"/>
      <point x="1204" y="907"/>
      <point x="1204" y="776" type="qcurve" smooth="yes"/>
      <point x="1204" y="258" type="line" smooth="yes"/>
      <point x="1204" y="189"/>
      <point x="1169" y="89"/>
      <point x="1095" y="25"/>
      <point x="979" y="-6"/>
      <point x="898" y="-6" type="qcurve" smooth="yes"/>
      <point x="362" y="-6" type="line" smooth="yes"/>
      <point x="282" y="-6"/>
      <point x="166" y="25"/>
      <point x="91" y="89"/>
      <point x="56" y="189"/>
      <point x="56" y="258" type="qcurve"/>
    </contour>
    <contour>
      <point x="580" y="26" type="line"/>
      <point x="580" y="26"/>
      <point x="580" y="26"/>
      <point x="580" y="26" type="qcurve"/>
      <point x="680" y="26" type="line"/>
      <point x="680" y="26"/>
      <point x="680" y="26"/>
      <point x="680" y="26" type="qcurve"/>
      <point x="680" y="998" type="line"/>
      <point x="680" y="998"/>
      <point x="680" y="998"/>
      <point x="680" y="998" type="qcurve"/>
      <point x="580" y="998" type="line"/>
      <point x="580" y="998"/>
      <point x="580" y="998"/>
      <point x="580" y="998" type="qcurve"/>
    </contour>
  </outline>
</glyph>
<glyph name="asciitilde" format="2">
  <advance width="674"/>
  <unicode hex="007E"/>
  <outline>
    <contour>
      <point x="10" y="425" type="line"/>
      <point x="17" y="477"/>
      <point x="29" y="569"/>
      <point x="46" y="645"/>
      <point x="71" y="705"/>
      <point x="109" y="746"/>
      <point x="162" y="768"/>
      <point x="199" y="768" type="qcurve" smooth="yes"/>
      <point x="234" y="768"/>
      <point x="298" y="755"/>
      <point x="360" y="734"/>
      <point x="418" y="711"/>
      <point x="472" y="690"/>
      <point x="524" y="677"/>
      <point x="549" y="677" type="qcurve" smooth="yes"/>
      <point x="566" y="677"/>
      <point x="593" y="686"/>
      <point x="613" y="705"/>
      <point x="626" y="735"/>
      <point x="629" y="756" type="qcurve"/>
      <point x="664" y="750" type="line"/>
      <point x="658" y="702"/>
      <point x="645" y="613"/>
      <point x="628" y="537"/>
      <point x="603" y="475"/>
      <point x="565" y="431"/>
      <point x="512" y="407"/>
      <point x="475" y="407" type="qcurve" smooth="yes"/>
      <point x="441" y="407"/>
      <point x="376" y="420"/>
      <point x="315" y="441"/>
      <point x="257" y="464"/>
      <point x="202" y="485"/>
      <point x="150" y="498"/>
      <point x="125" y="498" type="qcurve" smooth="yes"/>
      <point x="108" y="498"/>
      <point x="81" y="489"/>
      <point x="61" y="470"/>
      <point x="48" y="440"/>
      <point x="45" y="419" type="qcurve"/>
    </contour>
  </outline>
</glyph>
<glyph name="cent" format="2">
  <advance width="1374"/>
  <unicode hex="00A2"/>
  <outline>
    <contour>
      <point x="660" y="-100" type="line"/>
      <point x="722" y="-100" type="line"/>
      <point x="722" y="144" type="line"/>
      <point x="1008" y="144" type="line" smooth="yes"/>
      <point x="1097" y="144"/>
      <point x="1220" y="174"/>
      <point x="1297" y="239"/>
      <point x="1332" y="341"/>
      <point x="1332" y="414" type="qcurve" smooth="yes"/>
      <point x="1332" y="516" type="line"/>
      <point x="808" y="624" type="line"/>
      <point x="808" y="176" type="line"/>
      <point x="808" y="176"/>
      <point x="808" y="176"/>
      <point x="808" y="176" type="qcurve"/>
      <point x="722" y="176" type="line"/>
      <point x="722" y="1148" type="line"/>
      <point x="804" y="1148" type="line"/>
      <point x="804" y="1148"/>
      <point x="804" y="1148"/>
      <point x="804" y="1148" type="qcurve"/>
      <point x="804" y="702" type="line"/>
      <point x="1328" y="800" type="line"/>
      <point x="1328" y="924" type="line" smooth="yes"/>
      <point x="1328" y="993"/>
      <point x="1293" y="1090"/>
      <point x="1215" y="1152"/>
      <point x="1093" y="1180"/>
      <point x="1006" y="1180" type="qcurve" smooth="yes"/>
      <point x="722" y="1180" type="line"/>
      <point x="722" y="1400" type="line"/>
      <point x="660" y="1400" type="line"/>
      <point x="660" y="1180" type="line"/>
      <point x="382" y="1180" type="line" smooth="yes"/>
      <point x="295" y="1180"/>
      <point x="171" y="1151"/>
      <point x="93" y="1088"/>
      <point x="56" y="990"/>
      <point x="56" y="920" type="qcurve" smooth="yes"/>
      <point x="56" y="414" type="line" smooth="yes"/>
      <point x="56" y="341"/>
      <point x="91" y="239"/>
      <point x="168" y="174"/>
      <point x="292" y="144"/>
      <point x="380" y="144" type="qcurve" smooth="yes"/>
      <point x="660" y="144" type="line"/>
    </contour>
    <contour>
      <point x="660" y="1148" type="line"/>
      <point x="660" y="176" type="line"/>
      <point x="580" y="176" type="line"/>
      <point x="580" y="176"/>
      <point x="580" y="176"/>
      <point x="580" y="176" type="qcurve"/>
      <point x="580" y="1148" type="line"/>
      <point x="580" y="1148"/>
      <point x="580" y="1148"/>
      <point x="580" y="1148" type="qcurve"/>
    </contour>
  </outline>
</glyph>
<glyph name="Eth" format="2">
  <advance width="1367"/>
  <unicode hex="00D0"/>
  <anchor x="615.15" y="1550" name="top"/>
  <anchor x="615.15" y="-150" name="bottom"/>
  <outline>
    <contour>
      <point x="80" y="0" type="line"/>
      <point x="80" y="688" type="line"/>
      <point x="31" y="688" type="line"/>
      <point x="31" y="720" type="line"/>
      <point x="80" y="720" type="line"/>
      <point x="80" y="1400" type="line"/>
      <point x="667" y="1400" type="line" smooth="yes"/>
      <point x="778" y="1400"/>
      <point x="965" y="1362"/>
      <point x="1116" y="1285"/>
      <point x="1231" y="1169"/>
      <point x="1308" y="1013"/>
      <point x="1347" y="818"/>
      <point x="1347" y="700" type="qcurve" smooth="yes"/>
      <point x="1347" y="575"/>
      <point x="1302" y="373"/>
      <point x="1217" y="218"/>
      <point x="1097" y="106"/>
      <point x="946" y="34"/>
      <point x="767" y="0"/>
      <point x="667" y="0" type="qcurve" smooth="yes"/>
    </contour>
    <contour>
      <point x="652" y="36" type="line"/>
      <point x="662" y="36" type="line" smooth="yes"/>
      <point x="680" y="36"/>
      <point x="710" y="69"/>
      <point x="734" y="140"/>
      <point x="752" y="249"/>
      <point x="765" y="400"/>
      <point x="771" y="595"/>
      <point x="771" y="716" type="qcurve" smooth="yes"/>
      <point x="771" y="835"/>
      <point x="764" y="1024"/>
      <point x="751" y="1168"/>
      <point x="732" y="1270"/>
      <point x="708" y="1334"/>
      <point x="679" y="1364"/>
      <point x="662" y="1364" type="qcurve" smooth="yes"/>
      <point x="652" y="1364" type="line"/>
      <point x="652" y="720" type="line"/>
      <point x="700" y="720" type="line"/>
      <point x="700" y="688" type="line"/>
      <point x="652" y="688" type="line"/>
    </contour>
  </outline>
</glyph>
<glyph name="dcroat" format="2">
  <advance width="1296"/>
  <unicode hex="0111"/>
  <anchor x="658" y="1598" name="top"/>
  <outline>
    <contour>
      <point x="362" y="0" type="line" smooth="yes"/>
      <point x="282" y="0"/>
      <point x="166" y="31"/>
      <point x="91" y="95"/>
      <point x="56" y="195"/>
      <point x="56" y="264" type="qcurve" smooth="yes"/>
      <point x="56" y="776" type="line" smooth="yes"/>
      <point x="56" y="841"/>
      <point x="92" y="937"/>
      <point x="167" y="1000"/>
      <point x="283" y="1030"/>
      <point x="362" y="1030" type="qcurve" smooth="yes"/>
      <point x="604" y="1030" type="line" smooth="yes"/>
      <point x="636" y="1030"/>
      <point x="674" y="1018"/>
      <point x="680" y="1006" type="qcurve"/>
      <point x="680" y="1188" type="line"/>
      <point x="479" y="1188" type="line"/>
      <point x="479" y="1220" type="line"/>
      <point x="680" y="1220" type="line"/>
      <point x="680" y="1472" type="line"/>
      <point x="1204" y="1472" type="line"/>
      <point x="1204" y="1220" type="line"/>
      <point x="1299" y="1220" type="line"/>
      <point x="1299" y="1188" type="line"/>
      <point x="1204" y="1188" type="line"/>
      <point x="1204" y="0" type="line"/>
      <point x="680" y="0" type="line"/>
      <point x="680" y="28" type="line"/>
      <point x="669" y="14"/>
      <point x="631" y="0"/>
      <point x="604" y="0" type="qcurve" smooth="yes"/>
    </contour>
    <contour>
      <point x="680" y="998" type="line"/>
      <point x="580" y="998" type="line"/>
      <point x="580" y="998"/>
      <point x="580" y="998"/>
      <point x="580" y="998" type="qcurve"/>
      <point x="580" y="32" type="line"/>
      <point x="580" y="32"/>
      <point x="580" y="32"/>
      <point x="580" y="32" type="qcurve"/>
      <point x="680" y="32" type="line"/>
    </contour>
  </outline>
</glyph>
<glyph name="hbar" format="2">
  <advance width="1334"/>
  <unicode hex="0127"/>
  <anchor x="384" y="1622" name="top"/>
  <anchor x="696" y="-150" name="bottom"/>
  <anchor x="22" y="512" name="left"/>
  <outline>
    <contour>
      <point x="122" y="0" type="line"/>
      <point x="122" y="1235" type="line"/>
      <point x="22" y="1235" type="line"/>
      <point x="22" y="1267" type="line"/>
      <point x="122" y="1267" type="line"/>
      <point x="122" y="1472" type="line"/>
      <point x="646" y="1472" type="line"/>
      <point x="646" y="1267" type="line"/>
      <point x="904" y="1267" type="line"/>
      <point x="904" y="1235" type="line"/>
      <point x="646" y="1235" type="line"/>
      <point x="646" y="996" type="line"/>
      <point x="657" y="1010"/>
      <point x="695" y="1024"/>
      <point x="722" y="1024" type="qcurve" smooth="yes"/>
      <point x="904" y="1024" type="line" smooth="yes"/>
      <point x="1002" y="1024"/>
      <point x="1140" y="988"/>
      <point x="1229" y="914"/>
      <point x="1270" y="801"/>
      <point x="1270" y="724" type="qcurve" smooth="yes"/>
      <point x="1270" y="0" type="line"/>
      <point x="746" y="0" type="line"/>
      <point x="746" y="992" type="line"/>
      <point x="746" y="992"/>
      <point x="746" y="992"/>
      <point x="746" y="992" type="qcurve"/>
      <point x="646" y="992" type="line"/>
      <point x="646" y="0" type="line"/>
    </contour>
  </outline>
  <guideline angle="0" color="1,0,0,1" x="0" y="1251"/>
  <guideline angle="90" color="1,0,0,1" x="696" y="0"/>
</glyph>
<glyph name="uni018F" format="2">
  <advance width="1364"/>
  <unicode hex="018F"/>
  <anchor x="676" y="1550" name="top"/>
  <anchor x="676" y="-150" name="bottom"/>
  <outline>
    <contour>
      <point x="468" y="-10" type="line" smooth="yes"/>
      <point x="369" y="-10"/>
      <point x="215" y="21"/>
      <point x="109" y="99"/>
      <point x="54" y="233"/>
      <point x="54" y="336" type="qcurve" smooth="yes"/>
      <point x="54" y="700" type="line"/>
      <point x="728" y="700" type="line"/>
      <point x="728" y="1374" type="line"/>
      <point x="728" y="1374"/>
      <point x="728" y="1374"/>
      <point x="728" y="1374"/>
      <point x="728" y="1374"/>
      <point x="728" y="1374" type="qcurve"/>
      <point x="632" y="1374" type="line"/>
      <point x="632" y="1374"/>
      <point x="632" y="1374"/>
      <point x="632" y="1374"/>
      <point x="632" y="1374"/>
      <point x="632" y="1374" type="qcurve"/>
      <point x="632" y="906" type="line"/>
      <point x="60" y="1010" type="line"/>
      <point x="60" y="1076" type="line" smooth="yes"/>
      <point x="60" y="1177"/>
      <point x="119" y="1306"/>
      <point x="227" y="1381"/>
      <point x="380" y="1410"/>
      <point x="474" y="1410" type="qcurve" smooth="yes"/>
      <point x="888" y="1410" type="line" smooth="yes"/>
      <point x="983" y="1410"/>
      <point x="1135" y="1381"/>
      <point x="1242" y="1306"/>
      <point x="1300" y="1177"/>
      <point x="1300" y="1076" type="qcurve" smooth="yes"/>
      <point x="1300" y="336" type="line" smooth="yes"/>
      <point x="1300" y="233"/>
      <point x="1246" y="99"/>
      <point x="1141" y="21"/>
      <point x="987" y="-10"/>
      <point x="888" y="-10" type="qcurve" smooth="yes"/>
    </contour>
    <contour>
      <point x="586" y="664" type="line"/>
      <point x="586" y="26" type="line"/>
      <point x="586" y="26"/>
      <point x="586" y="26"/>
      <point x="586" y="26"/>
      <point x="586" y="26"/>
      <point x="586" y="26" type="qcurve"/>
      <point x="728" y="26" type="line"/>
      <point x="728" y="26"/>
      <point x="728" y="26"/>
      <point x="728" y="26"/>
      <point x="728" y="26"/>
      <point x="728" y="26" type="qcurve"/>
      <point x="728" y="664" type="line"/>
    </contour>
  </outline>
</glyph>
<glyph name="uni0414" format="2">
  <advance width="1617"/>
  <unicode hex="0414"/>
  <outline>
    <contour>
      <point x="456" y="0" type="line"/>
      <point x="1161" y="0" type="line"/>
      <point x="1244" y="-300" type="line"/>
      <point x="1617" y="-300" type="line"/>
      <point x="1617" y="36" type="line"/>
      <point x="1448" y="36" type="line"/>
      <point x="1038" y="1400" type="line"/>
      <point x="665" y="1400" type="line"/>
      <point x="256" y="36" type="line"/>
      <point x="0" y="36" type="line"/>
      <point x="0" y="-300" type="line"/>
      <point x="373" y="-300" type="line"/>
    </contour>
    <contour>
      <point x="295" y="36" type="line"/>
      <point x="578" y="1000" type="line"/>
      <point x="846" y="36" type="line"/>
    </contour>
  </outline>
</glyph>
<glyph name="uni0417" format="2">
  <advance width="1277"/>
  <unicode hex="0417"/>
  <anchor x="636" y="1550" name="top"/>
  <anchor x="654" y="0" name="ogonek"/>
  <outline>
    <contour>
      <point x="14" y="434" type="line"/>
      <point x="14" y="306" type="line" smooth="yes"/>
      <point x="14" y="211"/>
      <point x="67" y="87"/>
      <point x="167" y="15"/>
      <point x="311" y="-14"/>
      <point x="402" y="-14" type="qcurve" smooth="yes"/>
      <point x="843" y="-14" type="line" smooth="yes"/>
      <point x="938" y="-14"/>
      <point x="1091" y="15"/>
      <point x="1199" y="90"/>
      <point x="1257" y="220"/>
      <point x="1257" y="320" type="qcurve" smooth="yes"/>
      <point x="1257" y="394" type="line" smooth="yes"/>
      <point x="1257" y="468"/>
      <point x="1229" y="577"/>
      <point x="1175" y="653"/>
      <point x="1094" y="700"/>
      <point x="1041" y="712" type="qcurve"/>
      <point x="1090" y="725"/>
      <point x="1164" y="773"/>
      <point x="1215" y="849"/>
      <point x="1241" y="955"/>
      <point x="1241" y="1026" type="qcurve" smooth="yes"/>
      <point x="1241" y="1081" type="line" smooth="yes"/>
      <point x="1241" y="1182"/>
      <point x="1183" y="1311"/>
      <point x="1075" y="1386"/>
      <point x="922" y="1415"/>
      <point x="827" y="1415" type="qcurve" smooth="yes"/>
      <point x="402" y="1415" type="line" smooth="yes"/>
      <point x="304" y="1415"/>
      <point x="158" y="1376"/>
      <point x="62" y="1299"/>
      <point x="14" y="1184"/>
      <point x="14" y="1107" type="qcurve" smooth="yes"/>
      <point x="14" y="979" type="line"/>
      <point x="586" y="885" type="line"/>
      <point x="586" y="1379" type="line"/>
      <point x="586" y="1379"/>
      <point x="586" y="1379"/>
      <point x="586" y="1379"/>
      <point x="586" y="1379"/>
      <point x="586" y="1379" type="qcurve"/>
      <point x="609" y="1379" type="line" smooth="yes"/>
      <point x="629" y="1379"/>
      <point x="657" y="1370"/>
      <point x="676" y="1355"/>
      <point x="685" y="1333"/>
      <point x="685" y="1319" type="qcurve" smooth="yes"/>
      <point x="685" y="788" type="line" smooth="yes"/>
      <point x="685" y="775"/>
      <point x="676" y="752"/>
      <point x="657" y="737"/>
      <point x="629" y="728"/>
      <point x="609" y="728" type="qcurve" smooth="yes"/>
      <point x="331" y="728" type="line"/>
      <point x="331" y="692" type="line"/>
      <point x="625" y="692" type="line" smooth="yes"/>
      <point x="645" y="692"/>
      <point x="673" y="683"/>
      <point x="692" y="668"/>
      <point x="701" y="646"/>
      <point x="701" y="632" type="qcurve" smooth="yes"/>
      <point x="701" y="82" type="line" smooth="yes"/>
      <point x="701" y="69"/>
      <point x="692" y="46"/>
      <point x="673" y="31"/>
      <point x="645" y="22"/>
      <point x="625" y="22" type="qcurve" smooth="yes"/>
      <point x="586" y="22" type="line"/>
      <point x="586" y="22"/>
      <point x="586" y="22"/>
      <point x="586" y="22"/>
      <point x="586" y="22"/>
      <point x="586" y="22" type="qcurve"/>
      <point x="586" y="528" type="line"/>
    </contour>
  </outline>
</glyph>
<glyph name="uni0429" format="2">
  <advance width="2122"/>
  <unicode hex="0429"/>
  <outline>
    <contour>
      <point x="80" y="0" type="line"/>
      <point x="1696" y="0" type="line"/>
      <point x="1790" y="-300" type="line"/>
      <point x="2152" y="-300" type="line"/>
      <point x="2152" y="36" type="line"/>
      <point x="1964" y="36" type="line"/>
      <point x="1964" y="1400" type="line"/>
      <point x="1418" y="1400" type="line"/>
      <point x="1418" y="36" type="line"/>
      <point x="1295" y="36" type="line"/>
      <point x="1295" y="1400" type="line"/>
      <point x="749" y="1400" type="line"/>
      <point x="749" y="36" type="line"/>
      <point x="626" y="36" type="line"/>
      <point x="626" y="1400" type="line"/>
      <point x="80" y="1400" type="line"/>
    </contour>
  </outline>
</glyph>
<glyph name="uni042C" format="2">
  <advance width="1362"/>
  <unicode hex="042C"/>
  <outline>
    <contour>
      <point x="80" y="0" type="line"/>
      <point x="928" y="0" type="line" smooth="yes"/>
      <point x="1023" y="0"/>
      <point x="1176" y="29"/>
      <point x="1284" y="104"/>
      <point x="1342" y="234"/>
      <point x="1342" y="334" type="qcurve" smooth="yes"/>
      <point x="1342" y="590" type="line" smooth="yes"/>
      <point x="1342" y="691"/>
      <point x="1284" y="820"/>
      <point x="1176" y="895"/>
      <point x="1023" y="924"/>
      <point x="928" y="924" type="qcurve" smooth="yes"/>
      <point x="652" y="924" type="line"/>
      <point x="652" y="1400" type="line"/>
      <point x="80" y="1400" type="line"/>
    </contour>
    <contour>
      <point x="652" y="36" type="line"/>
      <point x="652" y="888" type="line"/>
      <point x="694" y="888" type="line" smooth="yes"/>
      <point x="733" y="888"/>
      <point x="770" y="855"/>
      <point x="770" y="828" type="qcurve" smooth="yes"/>
      <point x="770" y="96" type="line" smooth="yes"/>
      <point x="770" y="83"/>
      <point x="761" y="60"/>
      <point x="742" y="45"/>
      <point x="714" y="36"/>
      <point x="694" y="36" type="qcurve" smooth="yes"/>
    </contour>
  </outline>
</glyph>
<glyph name="uni0438" format="2">
  <advance width="1339"/>
  <unicode hex="0438"/>
  <anchor x="667" y="1150" name="top"/>
  <outline>
    <contour>
      <point x="72" y="0" type="line"/>
      <point x="597" y="0" type="line"/>
      <point x="760" y="873" type="line"/>
      <point x="760" y="0" type="line"/>
      <point x="1275" y="0" type="line"/>
      <point x="1275" y="1024" type="line"/>
      <point x="750" y="1024" type="line"/>
      <point x="587" y="141" type="line"/>
      <point x="587" y="1024" type="line"/>
      <point x="72" y="1024" type="line"/>
    </contour>
  </outline>
</glyph>
<glyph name="uni043D" format="2">
  <advance width="1292"/>
  <unicode hex="043D"/>
  <outline>
    <contour>
      <point x="72" y="0" type="line"/>
      <point x="596" y="0" type="line"/>
      <point x="596" y="516" type="line"/>
      <point x="696" y="516" type="line"/>
      <point x="696" y="0" type="line"/>
      <point x="1220" y="0" type="line"/>
      <point x="1220" y="1024" type="line"/>
      <point x="696" y="1024" type="line"/>
      <point x="696" y="548" type="line"/>
      <point x="596" y="548" type="line"/>
      <point x="596" y="1024" type="line"/>
      <point x="72" y="1024" type="line"/>
    </contour>
  </outline>
</glyph>
<glyph name="uni0452" format="2">
  <advance width="1328"/>
  <unicode hex="0452"/>
  <anchor x="817" y="1174" name="top"/>
  <anchor x="646" y="-150" name="bottom"/>
  <anchor x="-28" y="512" name="left"/>
  <outline>
    <contour>
      <point x="122" y="0" type="line"/>
      <point x="646" y="0" type="line"/>
      <point x="646" y="992" type="line"/>
      <point x="746" y="992" type="line"/>
      <point x="746" y="992"/>
      <point x="746" y="992"/>
      <point x="746" y="992" type="qcurve"/>
      <point x="746" y="-396" type="line"/>
      <point x="746" y="-396"/>
      <point x="746" y="-396"/>
      <point x="746" y="-396" type="qcurve"/>
      <point x="384" y="-396" type="line"/>
      <point x="394" y="-428" type="line"/>
      <point x="904" y="-428" type="line" smooth="yes"/>
      <point x="1002" y="-428"/>
      <point x="1140" y="-392"/>
      <point x="1229" y="-318"/>
      <point x="1270" y="-205"/>
      <point x="1270" y="-128" type="qcurve" smooth="yes"/>
      <point x="1270" y="724" type="line" smooth="yes"/>
      <point x="1270" y="801"/>
      <point x="1229" y="914"/>
      <point x="1140" y="988"/>
      <point x="1002" y="1024"/>
      <point x="904" y="1024" type="qcurve" smooth="yes"/>
      <point x="722" y="1024" type="line" smooth="yes"/>
      <point x="695" y="1024"/>
      <point x="657" y="1010"/>
      <point x="646" y="996" type="qcurve"/>
      <point x="646" y="1235" type="line"/>
      <point x="904" y="1235" type="line"/>
      <point x="904" y="1267" type="line"/>
      <point x="646" y="1267" type="line"/>
      <point x="646" y="1472" type="line"/>
      <point x="122" y="1472" type="line"/>
      <point x="122" y="1267" type="line"/>
      <point x="22" y="1267" type="line"/>
      <point x="22" y="1235" type="line"/>
      <point x="122" y="1235" type="line"/>
    </contour>
  </outline>
</glyph>
<glyph name="uni04A2" format="2">
  <advance width="1454"/>
  <unicode hex="04A2"/>
  <outline>
    <contour>
      <point x="80" y="0" type="line"/>
      <point x="652" y="0" type="line"/>
      <point x="652" y="710" type="line"/>
      <point x="752" y="710" type="line"/>
      <point x="752" y="0" type="line" name="ATT"/>
      <point x="1028" y="0" type="line"/>
      <point x="1122" y="-300" type="line"/>
      <point x="1484" y="-300" type="line"/>
      <point x="1484" y="36" type="line"/>
      <point x="1324" y="36" type="line"/>
      <point x="1324" y="1400" type="line"/>
      <point x="752" y="1400" type="line"/>
      <point x="752" y="746" type="line"/>
      <point x="652" y="746" type="line"/>
      <point x="652" y="1400" type="line"/>
      <point x="80" y="1400" type="line"/>
    </contour>
  </outline>
</glyph>
<glyph name="uni04B7" format="2">
  <advance width="1400"/>
  <unicode hex="04B7"/>
  <outline>
    <contour>
      <point x="1005" y="-260" type="line"/>
      <point x="1336" y="-260" type="line"/>
      <point x="1336" y="32" type="line"/>
      <point x="1200" y="32" type="line"/>
      <point x="1200" y="1024" type="line"/>
      <point x="676" y="1024" type="line"/>
      <point x="676" y="266" type="line"/>
      <point x="576" y="266" type="line"/>
      <point x="576" y="266"/>
      <point x="576" y="266"/>
      <point x="576" y="266"/>
      <point x="576" y="266"/>
      <point x="576" y="266" type="qcurve"/>
      <point x="576" y="1024" type="line"/>
      <point x="52" y="1024" type="line"/>
      <point x="52" y="633" type="line" smooth="yes"/>
      <point x="52" y="512"/>
      <point x="103" y="359"/>
      <point x="200" y="272"/>
      <point x="338" y="240"/>
      <point x="425" y="240" type="qcurve" smooth="yes"/>
      <point x="676" y="240" type="line"/>
      <point x="676" y="0" type="line" name="ATT"/>
      <point x="910" y="0" type="line"/>
    </contour>
  </outline>
</glyph>
<glyph name="uni04B9" format="2">
  <advance width="1284"/>
  <unicode hex="04B9"/>
  <outline>
    <contour>
      <point x="696" y="0" type="line"/>
      <point x="1220" y="0" type="line"/>
      <point x="1220" y="1024" type="line"/>
      <point x="696" y="1024" type="line"/>
      <point x="696" y="346" type="line"/>
      <point x="655" y="346" type="line"/>
      <point x="655" y="789" type="line"/>
      <point x="623" y="789" type="line"/>
      <point x="623" y="346" type="line"/>
      <point x="576" y="346" type="line"/>
      <point x="576" y="346"/>
      <point x="576" y="346"/>
      <point x="576" y="346"/>
      <point x="576" y="346"/>
      <point x="576" y="346" type="qcurve"/>
      <point x="576" y="1024" type="line"/>
      <point x="52" y="1024" type="line"/>
      <point x="52" y="713" type="line" smooth="yes"/>
      <point x="52" y="592"/>
      <point x="103" y="439"/>
      <point x="200" y="352"/>
      <point x="338" y="320"/>
      <point x="425" y="320" type="qcurve" smooth="yes"/>
      <point x="623" y="320" type="line"/>
      <point x="623" y="120" type="line"/>
      <point x="655" y="120" type="line"/>
      <point x="655" y="320" type="line"/>
      <point x="696" y="320" type="line"/>
    </contour>
  </outline>
</glyph>
<glyph name="uni20B5" format="2">
  <advance width="1472" height="1448"/>
  <unicode hex="20B5"/>
  <outline>
    <contour>
      <point x="658" y="-160" type="line"/>
      <point x="862" y="-160" type="line"/>
      <point x="862" y="-10" type="line"/>
      <point x="1044" y="-10" type="line" smooth="yes"/>
      <point x="1143" y="-10"/>
      <point x="1297" y="21"/>
      <point x="1403" y="99"/>
      <point x="1458" y="233"/>
      <point x="1458" y="336" type="qcurve" smooth="yes"/>
      <point x="1458" y="530" type="line"/>
      <point x="886" y="640" type="line"/>
      <point x="886" y="26" type="line"/>
      <point x="886" y="26"/>
      <point x="886" y="26"/>
      <point x="886" y="26"/>
      <point x="886" y="26"/>
      <point x="886" y="26" type="qcurve"/>
      <point x="862" y="26" type="line"/>
      <point x="862" y="1374" type="line"/>
      <point x="880" y="1374" type="line"/>
      <point x="880" y="1374"/>
      <point x="880" y="1374"/>
      <point x="880" y="1374"/>
      <point x="880" y="1374"/>
      <point x="880" y="1374" type="qcurve"/>
      <point x="880" y="786" type="line"/>
      <point x="1452" y="890" type="line"/>
      <point x="1452" y="1076" type="line" smooth="yes"/>
      <point x="1452" y="1177"/>
      <point x="1394" y="1306"/>
      <point x="1286" y="1381"/>
      <point x="1133" y="1410"/>
      <point x="1038" y="1410" type="qcurve" smooth="yes"/>
      <point x="862" y="1410" type="line"/>
      <point x="862" y="1560" type="line"/>
      <point x="658" y="1560" type="line"/>
      <point x="658" y="1410" type="line"/>
      <point x="476" y="1410" type="line" smooth="yes"/>
      <point x="382" y="1410"/>
      <point x="229" y="1381"/>
      <point x="122" y="1306"/>
      <point x="64" y="1177"/>
      <point x="64" y="1076" type="qcurve" smooth="yes"/>
      <point x="64" y="336" type="line" smooth="yes"/>
      <point x="64" y="233"/>
      <point x="119" y="99"/>
      <point x="224" y="21"/>
      <point x="377" y="-10"/>
      <point x="476" y="-10" type="qcurve" smooth="yes"/>
      <point x="658" y="-10" type="line"/>
    </contour>
    <contour>
      <point x="636" y="26" type="line"/>
      <point x="636" y="26"/>
      <point x="636" y="26"/>
      <point x="636" y="26"/>
      <point x="636" y="26"/>
      <point x="636" y="26" type="qcurve"/>
      <point x="636" y="1374" type="line"/>
      <point x="636" y="1374"/>
      <point x="636" y="1374"/>
      <point x="636" y="1374"/>
      <point x="636" y="1374"/>
      <point x="636" y="1374" type="qcurve"/>
      <point x="658" y="1374" type="line"/>
      <point x="658" y="26" type="line"/>
    </contour>
  </outline>
</glyph>
<glyph name="uni223C" format="2">
  <advance width="1034"/>
  <unicode hex="223C"/>
  <outline>
    <contour>
      <point x="1000" y="649" type="line"/>
      <point x="1024" y="621" type="line"/>
      <point x="1002" y="597"/>
      <point x="946" y="552"/>
      <point x="879" y="519"/>
      <point x="797" y="499"/>
      <point x="749" y="499" type="qcurve" smooth="yes"/>
      <point x="705" y="499"/>
      <point x="624" y="520"/>
      <point x="549" y="551"/>
      <point x="476" y="587"/>
      <point x="402" y="618"/>
      <point x="325" y="639"/>
      <point x="283" y="639" type="qcurve" smooth="yes"/>
      <point x="241" y="639"/>
      <point x="168" y="621"/>
      <point x="107" y="591"/>
      <point x="55" y="549"/>
      <point x="34" y="525" type="qcurve"/>
      <point x="10" y="553" type="line"/>
      <point x="33" y="577"/>
      <point x="88" y="622"/>
      <point x="155" y="655"/>
      <point x="237" y="675"/>
      <point x="285" y="675" type="qcurve" smooth="yes"/>
      <point x="330" y="675"/>
      <point x="410" y="654"/>
      <point x="485" y="623"/>
      <point x="558" y="587"/>
      <point x="632" y="556"/>
      <point x="709" y="535"/>
      <point x="751" y="535" type="qcurve" smooth="yes"/>
      <point x="793" y="535"/>
      <point x="866" y="553"/>
      <point x="927" y="583"/>
      <point x="979" y="625"/>
      <point x="1000" y="649" type="qcurve"/>
    </contour>
  </outline>
</glyph>
<glyph name="uni27E8" format="2">
  <advance width="454"/>
  <unicode hex="27E8"/>
  <outline>
    <contour>
      <point x="392.8" y="0" type="line"/>
      <point x="427.8" y="0" type="line"/>
      <point x="317.8" y="700" type="line"/>
      <point x="428.8" y="1400" type="line"/>
      <point x="392.8" y="1400" type="line"/>
      <point x="28.8" y="700" type="line"/>
      <point x="392.8" y="0" type="line"/>
    </contour>
  </outline>
</glyph>
<glyph name="a.sc" format="2">
  <advance width="1081" height="1448"/>
  <anchor x="541" y="1210" name="top"/>
  <anchor x="441" y="-150" name="bottom"/>
  <anchor x="568" y="0" name="ogonek"/>
  <outline>
    <contour>
      <point x="373" y="1086" type="line"/>
      <point x="-10" y="0" type="line"/>
      <point x="25" y="0" type="line"/>
      <point x="293" y="760" type="line"/>
      <point x="531" y="0" type="line"/>
      <point x="1091" y="0" type="line"/>
      <point x="707" y="1086" type="line"/>
    </contour>
    <contour>
      <point x="79" y="226" type="line"/>
      <point x="614" y="226" type="line"/>
      <point x="609" y="259" type="line"/>
      <point x="95" y="259" type="line"/>
    </contour>
  </outline>
</glyph>
<glyph name="a.slnt" format="2">
  <advance width="1261" height="1448"/>
  <anchor x="623" y="1174" name="top"/>
  <anchor x="623" y="-162" name="bottom"/>
  <anchor x="717" y="0" name="ogonek"/>
  <outline>
    <contour>
      <point x="56" y="264" type="line"/>
      <point x="56" y="776" type="line" smooth="yes"/>
      <point x="56" y="841"/>
      <point x="92" y="937"/>
      <point x="167" y="1000"/>
      <point x="283" y="1030"/>
      <point x="362" y="1030" type="qcurve" smooth="yes"/>
      <point x="604" y="1030" type="line" smooth="yes"/>
      <point x="636" y="1030"/>
      <point x="674" y="1018"/>
      <point x="680" y="1006" type="qcurve"/>
      <point x="680" y="1024" type="line"/>
      <point x="1189" y="1024" type="line"/>
      <point x="1189" y="0" type="line"/>
      <point x="680" y="0" type="line"/>
      <point x="680" y="43" type="line"/>
      <point x="669" y="24"/>
      <point x="623" y="0"/>
      <point x="581" y="0" type="qcurve" smooth="yes"/>
      <point x="362" y="0" type="line" smooth="yes"/>
      <point x="282" y="0"/>
      <point x="166" y="31"/>
      <point x="91" y="95"/>
      <point x="56" y="195"/>
      <point x="56" y="264" type="qcurve"/>
    </contour>
    <contour>
      <point x="680" y="998" type="line"/>
      <point x="580" y="998" type="line"/>
      <point x="580" y="998"/>
      <point x="580" y="998"/>
      <point x="580" y="998" type="qcurve"/>
      <point x="580" y="32" type="line"/>
      <point x="580" y="32"/>
      <point x="580" y="32"/>
      <point x="580" y="32" type="qcurve"/>
      <point x="581" y="32" type="line"/>
      <point x="606" y="32"/>
      <point x="643" y="44"/>
      <point x="668" y="71"/>
      <point x="680" y="116"/>
      <point x="680" y="148" type="qcurve" smooth="yes"/>
    </contour>
  </outline>
</glyph>
<glyph name="acutecomb.case" format="2">
  <anchor x="0" y="1150" name="_top"/>
  <anchor x="-63" y="1100" name="topright"/>
  <outline>
    <contour>
      <point x="-103" y="1100" type="line"/>
      <point x="-64" y="1400" type="line"/>
      <point x="527" y="1400" type="line"/>
      <point x="-63" y="1100" type="line"/>
    </contour>
  </outline>
</glyph>
<glyph name="b.sc" format="2">
  <advance width="1262"/>
  <anchor x="648" y="1236" name="top"/>
  <anchor x="648" y="-150" name="bottom"/>
  <outline>
    <contour>
      <point x="80" y="0" type="line"/>
      <point x="894" y="0" type="line" smooth="yes"/>
      <point x="990" y="0"/>
      <point x="1122" y="29"/>
      <point x="1205" y="92"/>
      <point x="1242" y="190"/>
      <point x="1242" y="259" type="qcurve" smooth="yes"/>
      <point x="1242" y="298" type="line" smooth="yes"/>
      <point x="1242" y="352"/>
      <point x="1222" y="437"/>
      <point x="1179" y="500"/>
      <point x="1110" y="542"/>
      <point x="1061" y="552" type="qcurve"/>
      <point x="1107" y="567"/>
      <point x="1171" y="610"/>
      <point x="1211" y="669"/>
      <point x="1229" y="746"/>
      <point x="1229" y="796" type="qcurve" smooth="yes"/>
      <point x="1229" y="827" type="line" smooth="yes"/>
      <point x="1229" y="896"/>
      <point x="1192" y="994"/>
      <point x="1109" y="1057"/>
      <point x="977" y="1086"/>
      <point x="881" y="1086" type="qcurve" smooth="yes"/>
      <point x="80" y="1086" type="line"/>
    </contour>
    <contour>
      <point x="611" y="33" type="line"/>
      <point x="611" y="534" type="line"/>
      <point x="655" y="534" type="line" smooth="yes"/>
      <point x="684" y="534"/>
      <point x="711" y="508"/>
      <point x="711" y="487" type="qcurve" smooth="yes"/>
      <point x="711" y="79" type="line" smooth="yes"/>
      <point x="711" y="59"/>
      <point x="684" y="33"/>
      <point x="655" y="33" type="qcurve" smooth="yes"/>
    </contour>
    <contour>
      <point x="611" y="567" type="line"/>
      <point x="611" y="1053" type="line"/>
      <point x="645" y="1053" type="line" smooth="yes"/>
      <point x="674" y="1053"/>
      <point x="701" y="1027"/>
      <point x="701" y="1007" type="qcurve" smooth="yes"/>
      <point x="701" y="613" type="line" smooth="yes"/>
      <point x="701" y="603"/>
      <point x="694" y="586"/>
      <point x="681" y="574"/>
      <point x="660" y="567"/>
      <point x="645" y="567" type="qcurve" smooth="yes"/>
    </contour>
  </outline>
</glyph>
<glyph name="c.sc" format="2">
  <advance width="1250" height="1448"/>
  <anchor x="650" y="1220" name="top"/>
  <anchor x="650" y="-150" name="bottom"/>
  <outline>
    <contour>
      <point x="64" y="835" type="line"/>
      <point x="64" y="261" type="line" smooth="yes"/>
      <point x="64" y="181"/>
      <point x="112" y="77"/>
      <point x="202" y="16"/>
      <point x="332" y="-8"/>
      <point x="413" y="-8" type="qcurve" smooth="yes"/>
      <point x="885" y="-8" type="line" smooth="yes"/>
      <point x="966" y="-8"/>
      <point x="1096" y="16"/>
      <point x="1187" y="77"/>
      <point x="1236" y="181"/>
      <point x="1236" y="261" type="qcurve" smooth="yes"/>
      <point x="1236" y="411" type="line"/>
      <point x="705" y="496" type="line"/>
      <point x="705" y="20" type="line"/>
      <point x="705" y="20"/>
      <point x="705" y="20"/>
      <point x="705" y="20" type="qcurve"/>
      <point x="595" y="20" type="line"/>
      <point x="595" y="20"/>
      <point x="595" y="20"/>
      <point x="595" y="20" type="qcurve"/>
      <point x="595" y="1066" type="line"/>
      <point x="595" y="1066"/>
      <point x="595" y="1066"/>
      <point x="595" y="1066" type="qcurve"/>
      <point x="700" y="1066" type="line"/>
      <point x="700" y="1066"/>
      <point x="700" y="1066"/>
      <point x="700" y="1066" type="qcurve"/>
      <point x="700" y="610" type="line"/>
      <point x="1231" y="690" type="line"/>
      <point x="1231" y="835" type="line" smooth="yes"/>
      <point x="1231" y="913"/>
      <point x="1178" y="1013"/>
      <point x="1085" y="1072"/>
      <point x="956" y="1094"/>
      <point x="881" y="1094" type="qcurve" smooth="yes"/>
      <point x="413" y="1094" type="line" smooth="yes"/>
      <point x="336" y="1094"/>
      <point x="207" y="1072"/>
      <point x="115" y="1013"/>
      <point x="64" y="913"/>
      <point x="64" y="835" type="qcurve"/>
    </contour>
  </outline>
</glyph>
<glyph name="colonmonetary.alt" format="2">
  <advance width="1322" height="1448"/>
  <outline>
    <contour>
      <point x="64" y="1036" type="line"/>
      <point x="64" y="376" type="line" smooth="yes"/>
      <point x="64" y="273"/>
      <point x="119" y="139"/>
      <point x="224" y="61"/>
      <point x="377" y="30"/>
      <point x="476" y="30" type="qcurve" smooth="yes"/>
      <point x="894" y="30" type="line" smooth="yes"/>
      <point x="993" y="30"/>
      <point x="1147" y="61"/>
      <point x="1253" y="139"/>
      <point x="1308" y="273"/>
      <point x="1308" y="376" type="qcurve" smooth="yes"/>
      <point x="1308" y="530" type="line"/>
      <point x="736" y="640" type="line"/>
      <point x="736" y="66" type="line"/>
      <point x="736" y="66"/>
      <point x="736" y="66"/>
      <point x="736" y="66"/>
      <point x="736" y="66"/>
      <point x="736" y="66" type="qcurve"/>
      <point x="636" y="66" type="line"/>
      <point x="636" y="66"/>
      <point x="636" y="66"/>
      <point x="636" y="66"/>
      <point x="636" y="66"/>
      <point x="636" y="66" type="qcurve"/>
      <point x="636" y="1334" type="line"/>
      <point x="636" y="1334"/>
      <point x="636" y="1334"/>
      <point x="636" y="1334"/>
      <point x="636" y="1334"/>
      <point x="636" y="1334" type="qcurve"/>
      <point x="730" y="1334" type="line"/>
      <point x="730" y="1334"/>
      <point x="730" y="1334"/>
      <point x="730" y="1334"/>
      <point x="730" y="1334"/>
      <point x="730" y="1334" type="qcurve"/>
      <point x="730" y="786" type="line"/>
      <point x="1302" y="890" type="line"/>
      <point x="1302" y="1036" type="line" smooth="yes"/>
      <point x="1302" y="1137"/>
      <point x="1244" y="1266"/>
      <point x="1136" y="1341"/>
      <point x="983" y="1370"/>
      <point x="888" y="1370" type="qcurve" smooth="yes"/>
      <point x="486" y="1370" type="line" smooth="yes"/>
      <point x="392" y="1370"/>
      <point x="236" y="1341"/>
      <point x="125" y="1266"/>
      <point x="64" y="1137"/>
      <point x="64" y="1036" type="qcurve"/>
    </contour>
    <contour>
      <point x="657" y="38" type="line"/>
      <point x="633" y="-168" type="line"/>
      <point x="873" y="-168" type="line"/>
      <point x="897" y="38" type="line"/>
    </contour>
    <contour>
      <point x="1026" y="1357" type="line"/>
      <point x="1053" y="1568" type="line"/>
      <point x="813" y="1568" type="line"/>
      <point x="786" y="1357" type="line"/>
    </contour>
    <contour>
      <point x="338" y="46" type="line"/>
      <point x="313" y="-168" type="line"/>
      <point x="553" y="-168" type="line"/>
      <point x="578" y="46" type="line"/>
    </contour>
    <contour>
      <point x="707" y="1361" type="line"/>
      <point x="733" y="1568" type="line"/>
      <point x="493" y="1568" type="line"/>
      <point x="467" y="1361" type="line"/>
    </contour>
  </outline>
</glyph>
<glyph name="f.slnt" format="2">
  <advance width="857.8"/>
  <outline>
    <contour>
      <point x="76.8" y="1024" type="line"/>
      <point x="76.8" y="1176" type="line" smooth="yes"/>
      <point x="76.8" y="1254"/>
      <point x="116.8" y="1366"/>
      <point x="195.8" y="1438"/>
      <point x="313.8" y="1472"/>
      <point x="390.8" y="1472" type="qcurve" smooth="yes"/>
      <point x="867.8" y="1472" type="line"/>
      <point x="857.8" y="1440" type="line"/>
      <point x="600.8" y="1440" type="line"/>
      <point x="600.8" y="1440"/>
      <point x="600.8" y="1440"/>
      <point x="600.8" y="1440" type="qcurve"/>
      <point x="600.8" y="1024" type="line"/>
      <point x="837.8" y="1024" type="line"/>
      <point x="837.8" y="992" type="line"/>
      <point x="600.8" y="992" type="line"/>
      <point x="600.8" y="-428" type="line"/>
      <point x="76.8" y="-428" type="line"/>
      <point x="76.8" y="992" type="line"/>
      <point x="28.8" y="992" type="line"/>
      <point x="28.8" y="1024" type="line"/>
    </contour>
  </outline>
</glyph>
<glyph name="lslash.sc" format="2">
  <advance width="935"/>
  <outline>
    <contour>
      <point x="100" y="0" type="line"/>
      <point x="100" y="393" type="line"/>
      <point x="34" y="372" type="line"/>
      <point x="34" y="399" type="line"/>
      <point x="100" y="420" type="line"/>
      <point x="100" y="1086" type="line"/>
      <point x="631" y="1086" type="line"/>
      <point x="631" y="590" type="line"/>
      <point x="809" y="647" type="line"/>
      <point x="809" y="619" type="line"/>
      <point x="631" y="562" type="line"/>
      <point x="631" y="28" type="line"/>
      <point x="925" y="28" type="line"/>
      <point x="925" y="0" type="line"/>
    </contour>
  </outline>
</glyph>
<glyph name="nine.dnom" format="2">
  <advance width="724"/>
  <outline>
    <contour>
      <point x="363" y="790" type="line"/>
      <point x="294" y="790"/>
      <point x="193" y="786"/>
      <point x="120" y="771"/>
      <point x="74" y="742"/>
      <point x="48" y="693"/>
      <point x="38" y="620"/>
      <point x="38" y="569" type="qcurve" smooth="yes"/>
      <point x="38" y="491"/>
      <point x="63" y="403"/>
      <point x="130" y="360"/>
      <point x="248" y="350"/>
      <point x="341" y="350" type="qcurve" smooth="yes"/>
      <point x="386" y="350"/>
      <point x="458" y="358"/>
      <point x="512" y="370"/>
      <point x="549" y="384"/>
      <point x="560" y="390" type="qcurve"/>
      <point x="560" y="423" type="line"/>
      <point x="541" y="414"/>
      <point x="504" y="399"/>
      <point x="462" y="387"/>
      <point x="412" y="380"/>
      <point x="379" y="380" type="qcurve" smooth="yes"/>
      <point x="358" y="380"/>
      <point x="334" y="389"/>
      <point x="322" y="426"/>
      <point x="319" y="501"/>
      <point x="319" y="567" type="qcurve" smooth="yes"/>
      <point x="319" y="613"/>
      <point x="320" y="677"/>
      <point x="323" y="720"/>
      <point x="328" y="744"/>
      <point x="336" y="757"/>
      <point x="348" y="760"/>
      <point x="356" y="760" type="qcurve" smooth="yes"/>
      <point x="364" y="760"/>
      <point x="376" y="756"/>
      <point x="384" y="740"/>
      <point x="389" y="710"/>
      <point x="392" y="659"/>
      <point x="393" y="584"/>
      <point x="393" y="531" type="qcurve" smooth="yes"/>
      <point x="393" y="419"/>
      <point x="387" y="254"/>
      <point x="372" y="139"/>
      <point x="345" y="67"/>
      <point x="304" y="26"/>
      <point x="246" y="12"/>
      <point x="208" y="12" type="qcurve" smooth="yes"/>
      <point x="204" y="12"/>
      <point x="193" y="13"/>
      <point x="181" y="15"/>
      <point x="170" y="17"/>
      <point x="165" y="18" type="qcurve"/>
      <point x="174" y="-4" type="line"/>
      <point x="177" y="-5"/>
      <point x="185" y="-6"/>
      <point x="194" y="-7"/>
      <point x="204" y="-8"/>
      <point x="208" y="-8" type="qcurve" smooth="yes"/>
      <point x="330" y="-8"/>
      <point x="506" y="44"/>
      <point x="619" y="157"/>
      <point x="672" y="334"/>
      <point x="672" y="459" type="qcurve" smooth="yes"/>
      <point x="672" y="532"/>
      <point x="665" y="638"/>
      <point x="643" y="711"/>
      <point x="602" y="757"/>
      <point x="533" y="782"/>
      <point x="433" y="790"/>
      <point x="363" y="790" type="qcurve"/>
    </contour>
  </outline>
</glyph>
<glyph name="one.tnum" format="2">
  <advance width="1283" height="1448"/>
  <outline>
    <contour>
      <point x="113" y="1310" type="line"/>
      <point x="113" y="1273" type="line"/>
      <point x="379" y="1307" type="line"/>
      <point x="379" y="36" type="line"/>
      <point x="45" y="36" type="line"/>
      <point x="45" y="0" type="line"/>
      <point x="1231" y="0" type="line"/>
      <point x="1231" y="36" type="line"/>
      <point x="951" y="36" type="line"/>
      <point x="951" y="1418" type="line"/>
    </contour>
  </outline>
  <guideline angle="90" color="0.4,0.4,0.4,1" name="halfwidth" x="641.5" y="0"/>
</glyph>
<glyph name="periodcentered.loclCAT.case" format="2">
  <anchor x="-141" y="1275" name="_eldot"/>
  <outline>
    <contour>
      <point x="-297" y="1210" type="line"/>
      <point x="-297" y="1342" type="line" smooth="yes"/>
      <point x="-297" y="1382"/>
      <point x="-293" y="1425"/>
      <point x="-272" y="1446"/>
      <point x="-228" y="1450"/>
      <point x="-187" y="1450" type="qcurve" smooth="yes"/>
      <point x="-95" y="1450" type="line" smooth="yes"/>
      <point x="-54" y="1450"/>
      <point x="-10" y="1446"/>
      <point x="11" y="1425"/>
      <point x="15" y="1382"/>
      <point x="15" y="1342" type="qcurve" smooth="yes"/>
      <point x="15" y="1210" type="line" smooth="yes"/>
      <point x="15" y="1170"/>
      <point x="11" y="1125"/>
      <point x="-10" y="1104"/>
      <point x="-54" y="1100"/>
      <point x="-95" y="1100" type="qcurve" smooth="yes"/>
      <point x="-187" y="1100" type="line" smooth="yes"/>
      <point x="-228" y="1100"/>
      <point x="-272" y="1104"/>
      <point x="-293" y="1125"/>
      <point x="-297" y="1170"/>
      <point x="-297" y="1210" type="qcurve"/>
    </contour>
  </outline>
</glyph>
<glyph name="tildecomb.case" format="2">
  <anchor x="0" y="1150" name="_top"/>
  <anchor x="0" y="1582" name="top"/>
  <outline>
    <contour>
      <point x="-340" y="1105" type="line"/>
      <point x="-330" y="1183"/>
      <point x="-298" y="1318"/>
      <point x="-245" y="1416"/>
      <point x="-167" y="1472"/>
      <point x="-111" y="1472" type="qcurve" smooth="yes"/>
      <point x="-79" y="1472"/>
      <point x="-17" y="1460"/>
      <point x="42" y="1441"/>
      <point x="98" y="1419"/>
      <point x="151" y="1400"/>
      <point x="200" y="1388"/>
      <point x="222" y="1388" type="qcurve" smooth="yes"/>
      <point x="248" y="1388"/>
      <point x="279" y="1403"/>
      <point x="298" y="1425"/>
      <point x="307" y="1449"/>
      <point x="310" y="1459" type="qcurve"/>
      <point x="340" y="1454" type="line"/>
      <point x="330" y="1382"/>
      <point x="298" y="1249"/>
      <point x="245" y="1147"/>
      <point x="167" y="1087"/>
      <point x="111" y="1087" type="qcurve" smooth="yes"/>
      <point x="79" y="1087"/>
      <point x="17" y="1099"/>
      <point x="-42" y="1118"/>
      <point x="-98" y="1140"/>
      <point x="-151" y="1159"/>
      <point x="-200" y="1171"/>
      <point x="-222" y="1171" type="qcurve" smooth="yes"/>
      <point x="-248" y="1171"/>
      <point x="-279" y="1156"/>
      <point x="-298" y="1134"/>
      <point x="-307" y="1110"/>
      <point x="-310" y="1100" type="qcurve"/>
    </contour>
  </outline>
  <guideline angle="90" x="-340" y="0"/>
  <guideline angle="90" x="340" y="0"/>
  <guideline angle="90" x="-310" y="0"/>
  <guideline angle="90" x="310" y="0"/>
</glyph>
<glyph name="uni0259.sc" format="2">
  <advance width="1290"/>
  <anchor x="702" y="1550" name="top"/>
  <anchor x="702" y="-150" name="bottom"/>
  <outline>
    <contour>
      <point x="430" y="-8" type="line"/>
      <point x="862" y="-8" type="line" smooth="yes"/>
      <point x="948" y="-8"/>
      <point x="1083" y="16"/>
      <point x="1177" y="77"/>
      <point x="1226" y="181"/>
      <point x="1226" y="261" type="qcurve" smooth="yes"/>
      <point x="1226" y="835" type="line" smooth="yes"/>
      <point x="1226" y="913"/>
      <point x="1176" y="1013"/>
      <point x="1081" y="1072"/>
      <point x="946" y="1094"/>
      <point x="862" y="1094" type="qcurve" smooth="yes"/>
      <point x="436" y="1094" type="line" smooth="yes"/>
      <point x="352" y="1094"/>
      <point x="217" y="1072"/>
      <point x="121" y="1013"/>
      <point x="70" y="913"/>
      <point x="70" y="835" type="qcurve" smooth="yes"/>
      <point x="70" y="783" type="line"/>
      <point x="601" y="703" type="line"/>
      <point x="601" y="1066" type="line"/>
      <point x="601" y="1066"/>
      <point x="601" y="1066"/>
      <point x="601" y="1066" type="qcurve"/>
      <point x="695" y="1066" type="line"/>
      <point x="695" y="1066"/>
      <point x="695" y="1066"/>
      <point x="695" y="1066" type="qcurve"/>
      <point x="695" y="543" type="line"/>
      <point x="64" y="543" type="line"/>
      <point x="64" y="261" type="line" smooth="yes"/>
      <point x="64" y="181"/>
      <point x="114" y="77"/>
      <point x="209" y="16"/>
      <point x="345" y="-8"/>
      <point x="430" y="-8" type="qcurve"/>
    </contour>
    <contour>
      <point x="601" y="20" type="line"/>
      <point x="601" y="20"/>
      <point x="601" y="20"/>
      <point x="601" y="20" type="qcurve"/>
      <point x="601" y="515" type="line"/>
      <point x="695" y="515" type="line"/>
      <point x="695" y="20" type="line"/>
      <point x="695" y="20"/>
      <point x="695" y="20"/>
      <point x="695" y="20" type="qcurve"/>
    </contour>
  </outline>
</glyph>
<glyph name="uni0308.case" format="2">
  <anchor x="0" y="1172" name="_top"/>
  <anchor x="0" y="1622" name="_bottom"/>
  <anchor x="0" y="1560" name="top"/>
  <outline>
    <contour>
      <point x="-466" y="1230" type="line" smooth="yes"/>
      <point x="-466" y="1190"/>
      <point x="-462" y="1145"/>
      <point x="-441" y="1124"/>
      <point x="-397" y="1120"/>
      <point x="-356" y="1120" type="qcurve" smooth="yes"/>
      <point x="-204" y="1120" type="line" smooth="yes"/>
      <point x="-164" y="1120"/>
      <point x="-119" y="1124"/>
      <point x="-98" y="1145"/>
      <point x="-94" y="1190"/>
      <point x="-94" y="1230" type="qcurve" smooth="yes"/>
      <point x="-94" y="1372" type="line" smooth="yes"/>
      <point x="-94" y="1412"/>
      <point x="-98" y="1455"/>
      <point x="-119" y="1476"/>
      <point x="-164" y="1480"/>
      <point x="-204" y="1480" type="qcurve" smooth="yes"/>
      <point x="-356" y="1480" type="line" smooth="yes"/>
      <point x="-397" y="1480"/>
      <point x="-441" y="1476"/>
      <point x="-462" y="1455"/>
      <point x="-466" y="1412"/>
      <point x="-466" y="1372" type="qcurve" smooth="yes"/>
    </contour>
    <contour>
      <point x="94" y="1230" type="line" smooth="yes"/>
      <point x="94" y="1190"/>
      <point x="98" y="1145"/>
      <point x="119" y="1124"/>
      <point x="164" y="1120"/>
      <point x="204" y="1120" type="qcurve" smooth="yes"/>
      <point x="356" y="1120" type="line" smooth="yes"/>
      <point x="397" y="1120"/>
      <point x="441" y="1124"/>
      <point x="462" y="1145"/>
      <point x="466" y="1190"/>
      <point x="466" y="1230" type="qcurve" smooth="yes"/>
      <point x="466" y="1372" type="line" smooth="yes"/>
      <point x="466" y="1412"/>
      <point x="462" y="1455"/>
      <point x="441" y="1476"/>
      <point x="397" y="1480"/>
      <point x="356" y="1480" type="qcurve" smooth="yes"/>
      <point x="204" y="1480" type="line" smooth="yes"/>
      <point x="164" y="1480"/>
      <point x="119" y="1476"/>
      <point x="98" y="1455"/>
      <point x="94" y="1412"/>
      <point x="94" y="1372" type="qcurve" smooth="yes"/>
    </contour>
  </outline>
</glyph>
<glyph name="uni0328.case" format="2">
  <anchor x="0" y="-150" name="_bottom"/>
  <anchor x="-153" y="0" name="_ogonek_in"/>
  <anchor x="-112" y="0" name="_ogonek"/>
  <outline>
    <contour>
      <point x="-112" y="0" type="line"/>
      <point x="-117" y="-8"/>
      <point x="-123" y="-25"/>
      <point x="-128" y="-41"/>
      <point x="-130" y="-58"/>
      <point x="-130" y="-66" type="qcurve" smooth="yes"/>
      <point x="-130" y="-100"/>
      <point x="-92" y="-147"/>
      <point x="-30" y="-177"/>
      <point x="49" y="-190"/>
      <point x="90" y="-190" type="qcurve" smooth="yes"/>
      <point x="114" y="-190"/>
      <point x="164" y="-186"/>
      <point x="211" y="-178"/>
      <point x="252" y="-167"/>
      <point x="267" y="-160" type="qcurve"/>
      <point x="213" y="-393" type="line"/>
      <point x="171" y="-416"/>
      <point x="79" y="-438"/>
      <point x="28" y="-438" type="qcurve" smooth="yes"/>
      <point x="-32" y="-438"/>
      <point x="-140" y="-409"/>
      <point x="-220" y="-358"/>
      <point x="-267" y="-289"/>
      <point x="-267" y="-249" type="qcurve"/>
      <point x="-254" y="-221"/>
      <point x="-225" y="-157"/>
      <point x="-195" y="-92"/>
      <point x="-166" y="-28"/>
      <point x="-153" y="0" type="qcurve"/>
    </contour>
  </outline>
</glyph>
<glyph name="uni0437.sc" format="2">
  <advance width="1161"/>
  <anchor x="587" y="1236" name="top"/>
  <anchor x="596" y="0" name="ogonek"/>
  <outline>
    <contour>
      <point x="14" y="348" type="line"/>
      <point x="14" y="248" type="line" smooth="yes"/>
      <point x="14" y="174"/>
      <point x="59" y="78"/>
      <point x="143" y="22"/>
      <point x="264" y="0"/>
      <point x="341" y="0" type="qcurve" smooth="yes"/>
      <point x="793" y="0" type="line" smooth="yes"/>
      <point x="873" y="0"/>
      <point x="1002" y="22"/>
      <point x="1093" y="81"/>
      <point x="1141" y="181"/>
      <point x="1141" y="259" type="qcurve" smooth="yes"/>
      <point x="1141" y="306" type="line" smooth="yes"/>
      <point x="1141" y="363"/>
      <point x="1118" y="448"/>
      <point x="1073" y="506"/>
      <point x="1005" y="543"/>
      <point x="960" y="552" type="qcurve"/>
      <point x="1002" y="562"/>
      <point x="1065" y="599"/>
      <point x="1107" y="658"/>
      <point x="1128" y="741"/>
      <point x="1128" y="796" type="qcurve" smooth="yes"/>
      <point x="1128" y="827" type="line" smooth="yes"/>
      <point x="1128" y="905"/>
      <point x="1080" y="1005"/>
      <point x="989" y="1064"/>
      <point x="860" y="1086"/>
      <point x="780" y="1086" type="qcurve" smooth="yes"/>
      <point x="341" y="1086" type="line" smooth="yes"/>
      <point x="258" y="1086"/>
      <point x="135" y="1056"/>
      <point x="54" y="996"/>
      <point x="14" y="906"/>
      <point x="14" y="847" type="qcurve" smooth="yes"/>
      <point x="14" y="748" type="line"/>
      <point x="545" y="675" type="line"/>
      <point x="545" y="1052" type="line"/>
      <point x="545" y="1052"/>
      <point x="545" y="1052"/>
      <point x="545" y="1052" type="qcurve"/>
      <point x="548" y="1052" type="line" smooth="yes"/>
      <point x="585" y="1052"/>
      <point x="614" y="1021"/>
      <point x="614" y="986" type="qcurve" smooth="yes"/>
      <point x="614" y="634" type="line" smooth="yes"/>
      <point x="614" y="599"/>
      <point x="585" y="568"/>
      <point x="548" y="568" type="qcurve" smooth="yes"/>
      <point x="317" y="568" type="line"/>
      <point x="317" y="535" type="line"/>
      <point x="561" y="535" type="line" smooth="yes"/>
      <point x="598" y="535"/>
      <point x="627" y="504"/>
      <point x="627" y="469" type="qcurve" smooth="yes"/>
      <point x="627" y="106" type="line" smooth="yes"/>
      <point x="627" y="71"/>
      <point x="598" y="40"/>
      <point x="561" y="40" type="qcurve" smooth="yes"/>
      <point x="545" y="40" type="line"/>
      <point x="545" y="40"/>
      <point x="545" y="45"/>
      <point x="545" y="40" type="qcurve"/>
      <point x="545" y="420" type="line"/>
    </contour>
  </outline>
</glyph>
<glyph name="uni045F.sc" format="2">
  <advance width="1296"/>
  <outline>
    <contour>
      <point x="72" y="0" type="line"/>
      <point x="438" y="0" type="line"/>
      <point x="523" y="-233" type="line"/>
      <point x="858" y="-233" type="line"/>
      <point x="858" y="0" type="line"/>
      <point x="1224" y="0" type="line"/>
      <point x="1224" y="1086" type="line"/>
      <point x="693" y="1086" type="line"/>
      <point x="693" y="33" type="line"/>
      <point x="603" y="33" type="line"/>
      <point x="603" y="1086" type="line"/>
      <point x="72" y="1086" type="line"/>
    </contour>
  </outline>
</glyph>
<glyph name="uni049B.sc" format="2">
  <advance width="1529"/>
  <outline>
    <contour>
      <point x="80" y="0" type="line"/>
      <point x="611" y="0" type="line"/>
      <point x="611" y="451" type="line"/>
      <point x="795" y="0" type="line" name="ATT"/>
      <point x="1113" y="0" type="line"/>
      <point x="1208" y="-260" type="line"/>
      <point x="1539" y="-260" type="line"/>
      <point x="1539" y="33" type="line"/>
      <point x="1390" y="33" type="line"/>
      <point x="979" y="827" type="line"/>
      <point x="1357" y="1086" type="line"/>
      <point x="1305" y="1086" type="line"/>
      <point x="611" y="611" type="line"/>
      <point x="611" y="1086" type="line"/>
      <point x="80" y="1086" type="line"/>
    </contour>
  </outline>
</glyph>
<glyph name="zero.dnom" format="2">
  <advance width="804" height="1448"/>
  <outline>
    <contour>
      <point x="293" y="-6" type="line"/>
      <point x="509" y="-6" type="line" smooth="yes"/>
      <point x="564" y="-6"/>
      <point x="650" y="11"/>
      <point x="709" y="55"/>
      <point x="740" y="130"/>
      <point x="740" y="188" type="qcurve" smooth="yes"/>
      <point x="740" y="603" type="line" smooth="yes"/>
      <point x="740" y="659"/>
      <point x="707" y="732"/>
      <point x="647" y="774"/>
      <point x="562" y="790"/>
      <point x="509" y="790" type="qcurve" smooth="yes"/>
      <point x="293" y="790" type="line" smooth="yes"/>
      <point x="241" y="790"/>
      <point x="156" y="774"/>
      <point x="96" y="732"/>
      <point x="64" y="659"/>
      <point x="64" y="603" type="qcurve" smooth="yes"/>
      <point x="64" y="188" type="line" smooth="yes"/>
      <point x="64" y="131"/>
      <point x="94" y="56"/>
      <point x="153" y="12"/>
      <point x="238" y="-6"/>
      <point x="293" y="-6" type="qcurve"/>
    </contour>
    <contour>
      <point x="358" y="24" type="line"/>
      <point x="358" y="24"/>
      <point x="358" y="24"/>
      <point x="358" y="24" type="qcurve"/>
      <point x="358" y="760" type="line"/>
      <point x="358" y="760"/>
      <point x="358" y="760"/>
      <point x="358" y="760" type="qcurve"/>
      <point x="446" y="760" type="line"/>
      <point x="446" y="760"/>
      <point x="446" y="760"/>
      <point x="446" y="760" type="qcurve"/>
      <point x="446" y="24" type="line"/>
      <point x="446" y="24"/>
      <point x="446" y="24"/>
      <point x="446" y="24" type="qcurve"/>
    </contour>
  </outline>
</glyph>
